<?xml version="1.0" encoding="UTF-8" standalone="no"?>
<!DOCTYPE svg PUBLIC "-//W3C//DTD SVG 1.1//EN"
 "http://www.w3.org/Graphics/SVG/1.1/DTD/svg11.dtd">
<!-- Generated by graphviz version 2.42.3 ()
 -->
<!-- Title: graphname Pages: 1 -->
<svg width="652pt" height="1149pt"
 viewBox="0.00 0.00 652.00 1149.00" xmlns="http://www.w3.org/2000/svg" xmlns:xlink="http://www.w3.org/1999/xlink">
<g id="graph0" class="graph" transform="scale(1 1) rotate(0) translate(4 1145)">
<title>graphname</title>
<polygon fill="#fafafa" stroke="transparent" points="-4,4 -4,-1145 648,-1145 648,4 -4,4"/>
<g id="clust1" class="cluster">
<title>cluster_google</title>
<polygon fill="#f5f5f5" stroke="#f5f5f5" points="8,-8 8,-1133 636,-1133 636,-8 8,-8"/>
<text text-anchor="start" x="266" y="-23" font-family="Helvetica,sans-Serif" font-weight="bold" font-size="20.00" fill="#707070">Provider google</text>
</g>
<g id="clust2" class="cluster">
<title>cluster_google_</title>
<polygon fill="#eeeeee" stroke="#eeeeee" points="16,-54 16,-1125 628,-1125 628,-54 16,-54"/>
<text text-anchor="start" x="318" y="-58.2" font-family="Helvetica,sans-Serif" font-size="1.00" fill="#383838"> </text>
</g>
<!-- Network::::4210819110226468163 -->
<g id="node1" class="node">
<title>Network::::4210819110226468163</title>
<polygon fill="#e5e5e5" stroke="#dddddd" points="620,-139 543,-139 543,-81 620,-81 620,-139"/>
<text text-anchor="start" x="555.5" y="-119.2" font-family="Helvetica,sans-Serif" font-weight="bold" font-size="16.00" fill="#707070">Network</text>
<text text-anchor="start" x="555.5" y="-94.2" font-family="Helvetica,sans-Serif" font-size="16.00" fill="#383838">rhmig</text>
</g>
<!-- SubNetwork::::6178918638745656621 -->
<g id="node2" class="node">
<title>SubNetwork::::6178918638745656621</title>
<polygon fill="#e5e5e5" stroke="#dddddd" points="507,-149 347,-149 347,-91 507,-91 507,-149"/>
<text text-anchor="start" x="359" y="-129.2" font-family="Helvetica,sans-Serif" font-weight="bold" font-size="16.00" fill="#707070">SubNetwork</text>
<text text-anchor="start" x="359" y="-104.2" font-family="Helvetica,sans-Serif" font-size="16.00" fill="#383838">subnet&#45;10&#45;0&#45;0&#45;0&#45;16</text>
</g>
<!-- SubNetwork::::6178918638745656621&#45;&gt;Network::::4210819110226468163 -->
<g id="edge1" class="edge">
<title>SubNetwork::::6178918638745656621&#45;&gt;Network::::4210819110226468163</title>
<path fill="none" stroke="#707070" d="M507.38,-114.79C515.93,-114.23 524.43,-113.68 532.45,-113.15"/>
<polygon fill="#707070" stroke="#707070" points="532.93,-116.63 542.68,-112.48 532.47,-109.64 532.93,-116.63"/>
</g>
<!-- IamBinding::::roles/compute.admin -->
<g id="node3" class="node">
<title>IamBinding::::roles/compute.admin</title>
<polygon fill="#e5e5e5" stroke="#dddddd" points="251,-1117 84,-1117 84,-1059 251,-1059 251,-1117"/>
<text text-anchor="start" x="96.5" y="-1097.2" font-family="Helvetica,sans-Serif" font-weight="bold" font-size="16.00" fill="#707070">IamBinding</text>
<text text-anchor="start" x="96.5" y="-1072.2" font-family="Helvetica,sans-Serif" font-size="16.00" fill="#383838">roles/compute.admin</text>
</g>
<!-- IamBinding::::roles/compute.serviceAgent -->
<g id="node4" class="node">
<title>IamBinding::::roles/compute.serviceAgent</title>
<polygon fill="#e5e5e5" stroke="#dddddd" points="277.5,-1041 57.5,-1041 57.5,-983 277.5,-983 277.5,-1041"/>
<text text-anchor="start" x="69.5" y="-1021.2" font-family="Helvetica,sans-Serif" font-weight="bold" font-size="16.00" fill="#707070">IamBinding</text>
<text text-anchor="start" x="69.5" y="-996.2" font-family="Helvetica,sans-Serif" font-size="16.00" fill="#383838">roles/compute.serviceAgent</text>
</g>
<!-- IamBinding::::roles/compute.viewer -->
<g id="node5" class="node">
<title>IamBinding::::roles/compute.viewer</title>
<polygon fill="#e5e5e5" stroke="#dddddd" points="255,-965 80,-965 80,-907 255,-907 255,-965"/>
<text text-anchor="start" x="92.5" y="-945.2" font-family="Helvetica,sans-Serif" font-weight="bold" font-size="16.00" fill="#707070">IamBinding</text>
<text text-anchor="start" x="92.5" y="-920.2" font-family="Helvetica,sans-Serif" font-size="16.00" fill="#383838">roles/compute.viewer</text>
</g>
<!-- IamBinding::::roles/dns.admin -->
<g id="node6" class="node">
<title>IamBinding::::roles/dns.admin</title>
<polygon fill="#e5e5e5" stroke="#dddddd" points="236,-889 99,-889 99,-831 236,-831 236,-889"/>
<text text-anchor="start" x="111.5" y="-869.2" font-family="Helvetica,sans-Serif" font-weight="bold" font-size="16.00" fill="#707070">IamBinding</text>
<text text-anchor="start" x="111.5" y="-844.2" font-family="Helvetica,sans-Serif" font-size="16.00" fill="#383838">roles/dns.admin</text>
</g>
<!-- IamBinding::::roles/iam.serviceAccountAdmin -->
<g id="node7" class="node">
<title>IamBinding::::roles/iam.serviceAccountAdmin</title>
<polygon fill="#e5e5e5" stroke="#dddddd" points="288.5,-813 46.5,-813 46.5,-755 288.5,-755 288.5,-813"/>
<text text-anchor="start" x="58.5" y="-793.2" font-family="Helvetica,sans-Serif" font-weight="bold" font-size="16.00" fill="#707070">IamBinding</text>
<text text-anchor="start" x="58.5" y="-768.2" font-family="Helvetica,sans-Serif" font-size="16.00" fill="#383838">roles/iam.serviceAccountAdmin</text>
</g>
<!-- IamBinding::::roles/owner -->
<g id="node8" class="node">
<title>IamBinding::::roles/owner</title>
<polygon fill="#e5e5e5" stroke="#dddddd" points="221,-737 114,-737 114,-679 221,-679 221,-737"/>
<text text-anchor="start" x="126.5" y="-717.2" font-family="Helvetica,sans-Serif" font-weight="bold" font-size="16.00" fill="#707070">IamBinding</text>
<text text-anchor="start" x="126.5" y="-692.2" font-family="Helvetica,sans-Serif" font-size="16.00" fill="#383838">roles/owner</text>
</g>
<!-- IamBinding::::roles/resourcemanager.projectIamAdmin -->
<g id="node9" class="node">
<title>IamBinding::::roles/resourcemanager.projectIamAdmin</title>
<polygon fill="#e5e5e5" stroke="#dddddd" points="311,-661 24,-661 24,-603 311,-603 311,-661"/>
<text text-anchor="start" x="36.5" y="-641.2" font-family="Helvetica,sans-Serif" font-weight="bold" font-size="16.00" fill="#707070">IamBinding</text>
<text text-anchor="start" x="36.5" y="-616.2" font-family="Helvetica,sans-Serif" font-size="16.00" fill="#383838">roles/resourcemanager.projectIam...</text>
</g>
<!-- IamBinding::::roles/storage.admin -->
<g id="node10" class="node">
<title>IamBinding::::roles/storage.admin</title>
<polygon fill="#e5e5e5" stroke="#dddddd" points="251,-585 84,-585 84,-527 251,-527 251,-585"/>
<text text-anchor="start" x="96.5" y="-565.2" font-family="Helvetica,sans-Serif" font-weight="bold" font-size="16.00" fill="#707070">IamBinding</text>
<text text-anchor="start" x="96.5" y="-540.2" font-family="Helvetica,sans-Serif" font-size="16.00" fill="#383838">roles/storage.admin</text>
</g>
<!-- IamBinding::::roles/storage.objectAdmin -->
<g id="node11" class="node">
<title>IamBinding::::roles/storage.objectAdmin</title>
<polygon fill="#e5e5e5" stroke="#dddddd" points="273.5,-509 61.5,-509 61.5,-451 273.5,-451 273.5,-509"/>
<text text-anchor="start" x="73.5" y="-489.2" font-family="Helvetica,sans-Serif" font-weight="bold" font-size="16.00" fill="#707070">IamBinding</text>
<text text-anchor="start" x="73.5" y="-464.2" font-family="Helvetica,sans-Serif" font-size="16.00" fill="#383838">roles/storage.objectAdmin</text>
</g>
<!-- IamPolicy::::policy -->
<g id="node12" class="node">
<title>IamPolicy::::policy</title>
<polygon fill="#e5e5e5" stroke="#dddddd" points="213.5,-433 121.5,-433 121.5,-375 213.5,-375 213.5,-433"/>
<text text-anchor="start" x="133.5" y="-413.2" font-family="Helvetica,sans-Serif" font-weight="bold" font-size="16.00" fill="#707070">IamPolicy</text>
<text text-anchor="start" x="133.5" y="-388.2" font-family="Helvetica,sans-Serif" font-size="16.00" fill="#383838">policy</text>
</g>
<!-- Disk::::821594300226313540 -->
<g id="node13" class="node">
<title>Disk::::821594300226313540</title>
<polygon fill="#e5e5e5" stroke="#dddddd" points="477,-225 377,-225 377,-167 477,-167 477,-225"/>
<text text-anchor="start" x="389" y="-205.2" font-family="Helvetica,sans-Serif" font-weight="bold" font-size="16.00" fill="#707070">Disk</text>
<text text-anchor="start" x="389" y="-180.2" font-family="Helvetica,sans-Serif" font-size="16.00" fill="#383838">extra&#45;disk</text>
</g>
<!-- Disk::::7781482283910405429 -->
<g id="node14" class="node">
<title>Disk::::7781482283910405429</title>
<polygon fill="#e5e5e5" stroke="#dddddd" points="469.5,-301 384.5,-301 384.5,-243 469.5,-243 469.5,-301"/>
<text text-anchor="start" x="397" y="-281.2" font-family="Helvetica,sans-Serif" font-weight="bold" font-size="16.00" fill="#707070">Disk</text>
<text text-anchor="start" x="397" y="-256.2" font-family="Helvetica,sans-Serif" font-size="16.00" fill="#383838">s1&#45;2&#45;uk1</text>
</g>
<!-- ServiceAccount::::112950954233185370823 -->
<g id="node15" class="node">
<title>ServiceAccount::::112950954233185370823</title>
<polygon fill="#e5e5e5" stroke="#dddddd" points="232.5,-357 102.5,-357 102.5,-299 232.5,-299 232.5,-357"/>
<text text-anchor="start" x="114.5" y="-337.2" font-family="Helvetica,sans-Serif" font-weight="bold" font-size="16.00" fill="#707070">ServiceAccount</text>
<text text-anchor="start" x="114.5" y="-312.2" font-family="Helvetica,sans-Serif" font-size="16.00" fill="#383838">grucloud</text>
</g>
<!-- ServiceAccount::::116099554802634020507 -->
<g id="node16" class="node">
<title>ServiceAccount::::116099554802634020507</title>
<polygon fill="#e5e5e5" stroke="#dddddd" points="251,-281 84,-281 84,-223 251,-223 251,-281"/>
<text text-anchor="start" x="96.5" y="-261.2" font-family="Helvetica,sans-Serif" font-weight="bold" font-size="16.00" fill="#707070">ServiceAccount</text>
<text text-anchor="start" x="96.5" y="-236.2" font-family="Helvetica,sans-Serif" font-size="16.00" fill="#383838">91170824493&#45;compute</text>
</g>
<!-- ServiceAccount::::105908581481869541232 -->
<g id="node17" class="node">
<title>ServiceAccount::::105908581481869541232</title>
<polygon fill="#e5e5e5" stroke="#dddddd" points="232.5,-205 102.5,-205 102.5,-147 232.5,-147 232.5,-205"/>
<text text-anchor="start" x="114.5" y="-185.2" font-family="Helvetica,sans-Serif" font-weight="bold" font-size="16.00" fill="#707070">ServiceAccount</text>
<text text-anchor="start" x="114.5" y="-160.2" font-family="Helvetica,sans-Serif" font-size="16.00" fill="#383838">sa&#45;grucloud</text>
</g>
<!-- VmInstance::::2879938255639911733 -->
<g id="node18" class="node">
<title>VmInstance::::2879938255639911733</title>
<polygon fill="#e5e5e5" stroke="#dddddd" points="217.5,-129 117.5,-129 117.5,-71 217.5,-71 217.5,-129"/>
<text text-anchor="start" x="129.5" y="-109.2" font-family="Helvetica,sans-Serif" font-weight="bold" font-size="16.00" fill="#707070">VmInstance</text>
<text text-anchor="start" x="129.5" y="-84.2" font-family="Helvetica,sans-Serif" font-size="16.00" fill="#383838">s1&#45;2&#45;uk1</text>
</g>
<!-- VmInstance::::2879938255639911733&#45;&gt;Network::::4210819110226468163 -->
<g id="edge2" class="edge">
<title>VmInstance::::2879938255639911733&#45;&gt;Network::::4210819110226468163</title>
<path fill="none" stroke="#707070" d="M217.73,-90.23C284.03,-78.7 405.42,-63.31 507,-82 515.68,-83.6 524.67,-86.18 533.25,-89.14"/>
<polygon fill="#707070" stroke="#707070" points="532.14,-92.45 542.73,-92.61 534.55,-85.88 532.14,-92.45"/>
</g>
<!-- VmInstance::::2879938255639911733&#45;&gt;SubNetwork::::6178918638745656621 -->
<g id="edge3" class="edge">
<title>VmInstance::::2879938255639911733&#45;&gt;SubNetwork::::6178918638745656621</title>
<path fill="none" stroke="#707070" d="M217.54,-103.81C251.17,-106.42 296.76,-109.96 336.73,-113.07"/>
<polygon fill="#707070" stroke="#707070" points="336.52,-116.56 346.76,-113.85 337.06,-109.58 336.52,-116.56"/>
</g>
<!-- VmInstance::::2879938255639911733&#45;&gt;Disk::::821594300226313540 -->
<g id="edge5" class="edge">
<title>VmInstance::::2879938255639911733&#45;&gt;Disk::::821594300226313540</title>
<path fill="none" stroke="#707070" d="M217.62,-109.95C245.54,-116.38 280.85,-125.82 311,-138 327.97,-144.85 330.75,-149.58 347,-158 353.6,-161.42 360.55,-164.91 367.49,-168.33"/>
<polygon fill="#707070" stroke="#707070" points="366.37,-171.68 376.89,-172.93 369.45,-165.39 366.37,-171.68"/>
</g>
<!-- VmInstance::::2879938255639911733&#45;&gt;Disk::::7781482283910405429 -->
<g id="edge4" class="edge">
<title>VmInstance::::2879938255639911733&#45;&gt;Disk::::7781482283910405429</title>
<path fill="none" stroke="#707070" d="M217.76,-102.01C248.01,-105.7 285.67,-115.05 311,-138 344.76,-168.6 316.25,-200.37 347,-234 354.78,-242.51 364.88,-249.32 375.25,-254.68"/>
<polygon fill="#707070" stroke="#707070" points="373.83,-257.88 384.37,-259.02 376.84,-251.56 373.83,-257.88"/>
</g>
</g>
</svg>
