<?xml version="1.0" encoding="UTF-8" standalone="no"?>
<!DOCTYPE svg PUBLIC "-//W3C//DTD SVG 1.1//EN"
 "http://www.w3.org/Graphics/SVG/1.1/DTD/svg11.dtd">
<!-- Generated by graphviz version 2.42.3 ()
 -->
<!-- Title: graphname Pages: 1 -->
<svg width="314pt" height="237pt"
 viewBox="0.00 0.00 314.00 237.00" xmlns="http://www.w3.org/2000/svg" xmlns:xlink="http://www.w3.org/1999/xlink">
<g id="graph0" class="graph" transform="scale(1 1) rotate(0) translate(4 233)">
<title>graphname</title>
<polygon fill="#fafafa" stroke="transparent" points="-4,4 -4,-233 310,-233 310,4 -4,4"/>
<g id="clust1" class="cluster">
<title>cluster_openstack</title>
<polygon fill="#f5f5f5" stroke="#f5f5f5" points="8,-8 8,-221 298,-221 298,-8 8,-8"/>
<text text-anchor="start" x="85" y="-23" font-family="Helvetica,sans-Serif" font-weight="bold" font-size="20.00" fill="#707070">Provider openstack</text>
</g>
<g id="clust2" class="cluster">
<title>cluster_openstack_</title>
<polygon fill="#eeeeee" stroke="#eeeeee" points="16,-54 16,-213 290,-213 290,-54 16,-54"/>
<text text-anchor="start" x="149" y="-58.2" font-family="Helvetica,sans-Serif" font-size="1.00" fill="#383838"> </text>
</g>
<!-- Network::::dfb3e958&#45;5c68&#45;4137&#45;9ffa&#45;f02fdc6a0b16 -->
<g id="node1" class="node">
<title>Network::::dfb3e958&#45;5c68&#45;4137&#45;9ffa&#45;f02fdc6a0b16</title>
<polygon fill="#e5e5e5" stroke="#dddddd" points="270.5,-205 193.5,-205 193.5,-147 270.5,-147 270.5,-205"/>
<text text-anchor="start" x="206" y="-185.2" font-family="Helvetica,sans-Serif" font-weight="bold" font-size="16.00" fill="#707070">Network</text>
<text text-anchor="start" x="206" y="-160.2" font-family="Helvetica,sans-Serif" font-size="16.00" fill="#383838">rhmig</text>
</g>
<!-- Volume::::5a57981e&#45;5afb&#45;4d61&#45;a52d&#45;e3239a7568ed -->
<g id="node2" class="node">
<title>Volume::::5a57981e&#45;5afb&#45;4d61&#45;a52d&#45;e3239a7568ed</title>
<polygon fill="#e5e5e5" stroke="#dddddd" points="282,-129 182,-129 182,-71 282,-71 282,-129"/>
<text text-anchor="start" x="194" y="-109.2" font-family="Helvetica,sans-Serif" font-weight="bold" font-size="16.00" fill="#707070">Volume</text>
<text text-anchor="start" x="194" y="-84.2" font-family="Helvetica,sans-Serif" font-size="16.00" fill="#383838">extra&#45;disk</text>
</g>
<!-- Subnet::::7704de0b&#45;5838&#45;4eaf&#45;9be5&#45;9e136f460951 -->
<g id="node3" class="node">
<title>Subnet::::7704de0b&#45;5838&#45;4eaf&#45;9be5&#45;9e136f460951</title>
<polygon fill="#e5e5e5" stroke="#dddddd" points="146,-205 24,-205 24,-147 146,-147 146,-205"/>
<text text-anchor="start" x="36" y="-185.2" font-family="Helvetica,sans-Serif" font-weight="bold" font-size="16.00" fill="#707070">Subnet</text>
<text text-anchor="start" x="36" y="-160.2" font-family="Helvetica,sans-Serif" font-size="16.00" fill="#383838">::10.0.0.0/16</text>
</g>
<!-- Subnet::::7704de0b&#45;5838&#45;4eaf&#45;9be5&#45;9e136f460951&#45;&gt;Network::::dfb3e958&#45;5c68&#45;4137&#45;9ffa&#45;f02fdc6a0b16 -->
<g id="edge1" class="edge">
<title>Subnet::::7704de0b&#45;5838&#45;4eaf&#45;9be5&#45;9e136f460951&#45;&gt;Network::::dfb3e958&#45;5c68&#45;4137&#45;9ffa&#45;f02fdc6a0b16</title>
<path fill="none" stroke="#707070" d="M146.23,-176C158.51,-176 171.27,-176 183.05,-176"/>
<polygon fill="#707070" stroke="#707070" points="183.11,-179.5 193.11,-176 183.11,-172.5 183.11,-179.5"/>
</g>
<!-- Server::::0c0434fa&#45;b0a2&#45;4988&#45;9d17&#45;3144cff4a4ad -->
<g id="node4" class="node">
<title>Server::::0c0434fa&#45;b0a2&#45;4988&#45;9d17&#45;3144cff4a4ad</title>
<polygon fill="#e5e5e5" stroke="#dddddd" points="127.5,-129 42.5,-129 42.5,-71 127.5,-71 127.5,-129"/>
<text text-anchor="start" x="55" y="-109.2" font-family="Helvetica,sans-Serif" font-weight="bold" font-size="16.00" fill="#707070">Server</text>
<text text-anchor="start" x="55" y="-84.2" font-family="Helvetica,sans-Serif" font-size="16.00" fill="#383838">s1&#45;2&#45;uk1</text>
</g>
<!-- Server::::0c0434fa&#45;b0a2&#45;4988&#45;9d17&#45;3144cff4a4ad&#45;&gt;Network::::dfb3e958&#45;5c68&#45;4137&#45;9ffa&#45;f02fdc6a0b16 -->
<g id="edge2" class="edge">
<title>Server::::0c0434fa&#45;b0a2&#45;4988&#45;9d17&#45;3144cff4a4ad&#45;&gt;Network::::dfb3e958&#45;5c68&#45;4137&#45;9ffa&#45;f02fdc6a0b16</title>
<path fill="none" stroke="#707070" d="M127.55,-121.78C145.31,-131.08 166.11,-141.99 184.39,-151.57"/>
<polygon fill="#707070" stroke="#707070" points="182.92,-154.75 193.41,-156.3 186.17,-148.55 182.92,-154.75"/>
</g>
<!-- Server::::0c0434fa&#45;b0a2&#45;4988&#45;9d17&#45;3144cff4a4ad&#45;&gt;Volume::::5a57981e&#45;5afb&#45;4d61&#45;a52d&#45;e3239a7568ed -->
<g id="edge3" class="edge">
<title>Server::::0c0434fa&#45;b0a2&#45;4988&#45;9d17&#45;3144cff4a4ad&#45;&gt;Volume::::5a57981e&#45;5afb&#45;4d61&#45;a52d&#45;e3239a7568ed</title>
<path fill="none" stroke="#707070" d="M127.55,-100C141.29,-100 156.85,-100 171.65,-100"/>
<polygon fill="#707070" stroke="#707070" points="171.74,-103.5 181.74,-100 171.74,-96.5 171.74,-103.5"/>
</g>
</g>
</svg>
