<?xml version="1.0" encoding="UTF-8" standalone="no"?>
<!DOCTYPE svg PUBLIC "-//W3C//DTD SVG 1.1//EN"
 "http://www.w3.org/Graphics/SVG/1.1/DTD/svg11.dtd">
<!-- Generated by graphviz version 2.42.3 ()
 -->
<!-- Title: graphname Pages: 1 -->
<svg width="479pt" height="1529pt"
 viewBox="0.00 0.00 479.00 1529.00" xmlns="http://www.w3.org/2000/svg" xmlns:xlink="http://www.w3.org/1999/xlink">
<g id="graph0" class="graph" transform="scale(1 1) rotate(0) translate(4 1525)">
<title>graphname</title>
<polygon fill="#fafafa" stroke="transparent" points="-4,4 -4,-1525 475,-1525 475,4 -4,4"/>
<g id="clust1" class="cluster">
<title>cluster_google</title>
<polygon fill="#f5f5f5" stroke="#f5f5f5" points="8,-8 8,-1513 463,-1513 463,-8 8,-8"/>
<text text-anchor="start" x="179.5" y="-23" font-family="Helvetica,sans-Serif" font-weight="bold" font-size="20.00" fill="#707070">Provider google</text>
</g>
<g id="clust2" class="cluster">
<title>cluster_google_</title>
<polygon fill="#eeeeee" stroke="#eeeeee" points="16,-54 16,-1505 455,-1505 455,-54 16,-54"/>
<text text-anchor="start" x="231.5" y="-58.2" font-family="Helvetica,sans-Serif" font-size="1.00" fill="#383838"> </text>
</g>
<!-- Disk::::3479233308945268637 -->
<g id="node1" class="node">
<title>Disk::::3479233308945268637</title>
<polygon fill="#e5e5e5" stroke="#dddddd" points="447,-129 347,-129 347,-71 447,-71 447,-129"/>
<text text-anchor="start" x="359" y="-109.2" font-family="Helvetica,sans-Serif" font-weight="bold" font-size="16.00" fill="#707070">Disk</text>
<text text-anchor="start" x="359" y="-84.2" font-family="Helvetica,sans-Serif" font-size="16.00" fill="#383838">web&#45;server</text>
</g>
<!-- IamPolicy::::policy -->
<g id="node2" class="node">
<title>IamPolicy::::policy</title>
<polygon fill="#e5e5e5" stroke="#dddddd" points="213.5,-1497 121.5,-1497 121.5,-1439 213.5,-1439 213.5,-1497"/>
<text text-anchor="start" x="133.5" y="-1477.2" font-family="Helvetica,sans-Serif" font-weight="bold" font-size="16.00" fill="#707070">IamPolicy</text>
<text text-anchor="start" x="133.5" y="-1452.2" font-family="Helvetica,sans-Serif" font-size="16.00" fill="#383838">policy</text>
</g>
<!-- IamBinding::::roles/compute.admin -->
<g id="node3" class="node">
<title>IamBinding::::roles/compute.admin</title>
<polygon fill="#e5e5e5" stroke="#dddddd" points="251,-1421 84,-1421 84,-1363 251,-1363 251,-1421"/>
<text text-anchor="start" x="96.5" y="-1401.2" font-family="Helvetica,sans-Serif" font-weight="bold" font-size="16.00" fill="#707070">IamBinding</text>
<text text-anchor="start" x="96.5" y="-1376.2" font-family="Helvetica,sans-Serif" font-size="16.00" fill="#383838">roles/compute.admin</text>
</g>
<!-- IamBinding::::roles/compute.serviceAgent -->
<g id="node4" class="node">
<title>IamBinding::::roles/compute.serviceAgent</title>
<polygon fill="#e5e5e5" stroke="#dddddd" points="277.5,-1345 57.5,-1345 57.5,-1287 277.5,-1287 277.5,-1345"/>
<text text-anchor="start" x="69.5" y="-1325.2" font-family="Helvetica,sans-Serif" font-weight="bold" font-size="16.00" fill="#707070">IamBinding</text>
<text text-anchor="start" x="69.5" y="-1300.2" font-family="Helvetica,sans-Serif" font-size="16.00" fill="#383838">roles/compute.serviceAgent</text>
</g>
<!-- IamBinding::::roles/dns.admin -->
<g id="node5" class="node">
<title>IamBinding::::roles/dns.admin</title>
<polygon fill="#e5e5e5" stroke="#dddddd" points="236,-1269 99,-1269 99,-1211 236,-1211 236,-1269"/>
<text text-anchor="start" x="111.5" y="-1249.2" font-family="Helvetica,sans-Serif" font-weight="bold" font-size="16.00" fill="#707070">IamBinding</text>
<text text-anchor="start" x="111.5" y="-1224.2" font-family="Helvetica,sans-Serif" font-size="16.00" fill="#383838">roles/dns.admin</text>
</g>
<!-- IamBinding::::roles/editor -->
<g id="node6" class="node">
<title>IamBinding::::roles/editor</title>
<polygon fill="#e5e5e5" stroke="#dddddd" points="225,-1193 110,-1193 110,-1135 225,-1135 225,-1193"/>
<text text-anchor="start" x="122.5" y="-1173.2" font-family="Helvetica,sans-Serif" font-weight="bold" font-size="16.00" fill="#707070">IamBinding</text>
<text text-anchor="start" x="122.5" y="-1148.2" font-family="Helvetica,sans-Serif" font-size="16.00" fill="#383838">roles/editor</text>
</g>
<!-- IamBinding::::roles/iam.serviceAccountAdmin -->
<g id="node7" class="node">
<title>IamBinding::::roles/iam.serviceAccountAdmin</title>
<polygon fill="#e5e5e5" stroke="#dddddd" points="288.5,-1117 46.5,-1117 46.5,-1059 288.5,-1059 288.5,-1117"/>
<text text-anchor="start" x="58.5" y="-1097.2" font-family="Helvetica,sans-Serif" font-weight="bold" font-size="16.00" fill="#707070">IamBinding</text>
<text text-anchor="start" x="58.5" y="-1072.2" font-family="Helvetica,sans-Serif" font-size="16.00" fill="#383838">roles/iam.serviceAccountAdmin</text>
</g>
<!-- IamBinding::::roles/owner -->
<g id="node8" class="node">
<title>IamBinding::::roles/owner</title>
<polygon fill="#e5e5e5" stroke="#dddddd" points="221,-1041 114,-1041 114,-983 221,-983 221,-1041"/>
<text text-anchor="start" x="126.5" y="-1021.2" font-family="Helvetica,sans-Serif" font-weight="bold" font-size="16.00" fill="#707070">IamBinding</text>
<text text-anchor="start" x="126.5" y="-996.2" font-family="Helvetica,sans-Serif" font-size="16.00" fill="#383838">roles/owner</text>
</g>
<!-- IamBinding::::roles/resourcemanager.projectIamAdmin -->
<g id="node9" class="node">
<title>IamBinding::::roles/resourcemanager.projectIamAdmin</title>
<polygon fill="#e5e5e5" stroke="#dddddd" points="311,-965 24,-965 24,-907 311,-907 311,-965"/>
<text text-anchor="start" x="36.5" y="-945.2" font-family="Helvetica,sans-Serif" font-weight="bold" font-size="16.00" fill="#707070">IamBinding</text>
<text text-anchor="start" x="36.5" y="-920.2" font-family="Helvetica,sans-Serif" font-size="16.00" fill="#383838">roles/resourcemanager.projectIam...</text>
</g>
<!-- IamBinding::::roles/storage.admin -->
<g id="node10" class="node">
<title>IamBinding::::roles/storage.admin</title>
<polygon fill="#e5e5e5" stroke="#dddddd" points="251,-889 84,-889 84,-831 251,-831 251,-889"/>
<text text-anchor="start" x="96.5" y="-869.2" font-family="Helvetica,sans-Serif" font-weight="bold" font-size="16.00" fill="#707070">IamBinding</text>
<text text-anchor="start" x="96.5" y="-844.2" font-family="Helvetica,sans-Serif" font-size="16.00" fill="#383838">roles/storage.admin</text>
</g>
<!-- IamBinding::::roles/storage.objectAdmin -->
<g id="node11" class="node">
<title>IamBinding::::roles/storage.objectAdmin</title>
<polygon fill="#e5e5e5" stroke="#dddddd" points="273.5,-813 61.5,-813 61.5,-755 273.5,-755 273.5,-813"/>
<text text-anchor="start" x="73.5" y="-793.2" font-family="Helvetica,sans-Serif" font-weight="bold" font-size="16.00" fill="#707070">IamBinding</text>
<text text-anchor="start" x="73.5" y="-768.2" font-family="Helvetica,sans-Serif" font-size="16.00" fill="#383838">roles/storage.objectAdmin</text>
</g>
<!-- IamBinding::::roles/viewer -->
<g id="node12" class="node">
<title>IamBinding::::roles/viewer</title>
<polygon fill="#e5e5e5" stroke="#dddddd" points="225,-737 110,-737 110,-679 225,-679 225,-737"/>
<text text-anchor="start" x="122.5" y="-717.2" font-family="Helvetica,sans-Serif" font-weight="bold" font-size="16.00" fill="#707070">IamBinding</text>
<text text-anchor="start" x="122.5" y="-692.2" font-family="Helvetica,sans-Serif" font-size="16.00" fill="#383838">roles/viewer</text>
</g>
<!-- Firewall::::5285077270892330268 -->
<g id="node13" class="node">
<title>Firewall::::5285077270892330268</title>
<polygon fill="#e5e5e5" stroke="#dddddd" points="247.5,-661 87.5,-661 87.5,-603 247.5,-603 247.5,-661"/>
<text text-anchor="start" x="99.5" y="-641.2" font-family="Helvetica,sans-Serif" font-weight="bold" font-size="16.00" fill="#707070">Firewall</text>
<text text-anchor="start" x="99.5" y="-616.2" font-family="Helvetica,sans-Serif" font-size="16.00" fill="#383838">default&#45;allow&#45;icmp</text>
</g>
<!-- Firewall::::171558043715583260 -->
<g id="node14" class="node">
<title>Firewall::::171558043715583260</title>
<polygon fill="#e5e5e5" stroke="#dddddd" points="262.5,-585 72.5,-585 72.5,-527 262.5,-527 262.5,-585"/>
<text text-anchor="start" x="84.5" y="-565.2" font-family="Helvetica,sans-Serif" font-weight="bold" font-size="16.00" fill="#707070">Firewall</text>
<text text-anchor="start" x="84.5" y="-540.2" font-family="Helvetica,sans-Serif" font-size="16.00" fill="#383838">default&#45;allow&#45;internal</text>
</g>
<!-- Firewall::::5942359957562670364 -->
<g id="node15" class="node">
<title>Firewall::::5942359957562670364</title>
<polygon fill="#e5e5e5" stroke="#dddddd" points="243.5,-509 91.5,-509 91.5,-451 243.5,-451 243.5,-509"/>
<text text-anchor="start" x="103.5" y="-489.2" font-family="Helvetica,sans-Serif" font-weight="bold" font-size="16.00" fill="#707070">Firewall</text>
<text text-anchor="start" x="103.5" y="-464.2" font-family="Helvetica,sans-Serif" font-size="16.00" fill="#383838">default&#45;allow&#45;rdp</text>
</g>
<!-- Firewall::::3339011543076912412 -->
<g id="node16" class="node">
<title>Firewall::::3339011543076912412</title>
<polygon fill="#e5e5e5" stroke="#dddddd" points="243.5,-433 91.5,-433 91.5,-375 243.5,-375 243.5,-433"/>
<text text-anchor="start" x="103.5" y="-413.2" font-family="Helvetica,sans-Serif" font-weight="bold" font-size="16.00" fill="#707070">Firewall</text>
<text text-anchor="start" x="103.5" y="-388.2" font-family="Helvetica,sans-Serif" font-size="16.00" fill="#383838">default&#45;allow&#45;ssh</text>
</g>
<!-- ServiceAccount::::116948353439282795681 -->
<g id="node17" class="node">
<title>ServiceAccount::::116948353439282795681</title>
<polygon fill="#e5e5e5" stroke="#dddddd" points="232.5,-357 102.5,-357 102.5,-299 232.5,-299 232.5,-357"/>
<text text-anchor="start" x="114.5" y="-337.2" font-family="Helvetica,sans-Serif" font-weight="bold" font-size="16.00" fill="#707070">ServiceAccount</text>
<text text-anchor="start" x="114.5" y="-312.2" font-family="Helvetica,sans-Serif" font-size="16.00" fill="#383838">grucloud</text>
</g>
<!-- ServiceAccount::::114319035332297228442 -->
<g id="node18" class="node">
<title>ServiceAccount::::114319035332297228442</title>
<polygon fill="#e5e5e5" stroke="#dddddd" points="255,-281 80,-281 80,-223 255,-223 255,-281"/>
<text text-anchor="start" x="92.5" y="-261.2" font-family="Helvetica,sans-Serif" font-weight="bold" font-size="16.00" fill="#707070">ServiceAccount</text>
<text text-anchor="start" x="92.5" y="-236.2" font-family="Helvetica,sans-Serif" font-size="16.00" fill="#383838">readonly&#45;sa&#45;grucloud</text>
</g>
<!-- ServiceAccount::::115412951898562019900 -->
<g id="node19" class="node">
<title>ServiceAccount::::115412951898562019900</title>
<polygon fill="#e5e5e5" stroke="#dddddd" points="251,-205 84,-205 84,-147 251,-147 251,-205"/>
<text text-anchor="start" x="96.5" y="-185.2" font-family="Helvetica,sans-Serif" font-weight="bold" font-size="16.00" fill="#707070">ServiceAccount</text>
<text text-anchor="start" x="96.5" y="-160.2" font-family="Helvetica,sans-Serif" font-size="16.00" fill="#383838">90918681706&#45;compute</text>
</g>
<!-- VmInstance::::5747070856931295133 -->
<g id="node20" class="node">
<title>VmInstance::::5747070856931295133</title>
<polygon fill="#e5e5e5" stroke="#dddddd" points="217.5,-129 117.5,-129 117.5,-71 217.5,-71 217.5,-129"/>
<text text-anchor="start" x="129.5" y="-109.2" font-family="Helvetica,sans-Serif" font-weight="bold" font-size="16.00" fill="#707070">VmInstance</text>
<text text-anchor="start" x="129.5" y="-84.2" font-family="Helvetica,sans-Serif" font-size="16.00" fill="#383838">web&#45;server</text>
</g>
<!-- VmInstance::::5747070856931295133&#45;&gt;Disk::::3479233308945268637 -->
<g id="edge1" class="edge">
<title>VmInstance::::5747070856931295133&#45;&gt;Disk::::3479233308945268637</title>
<path fill="none" stroke="#707070" d="M217.58,-100C252.45,-100 299.45,-100 336.46,-100"/>
<polygon fill="#707070" stroke="#707070" points="336.61,-103.5 346.61,-100 336.61,-96.5 336.61,-103.5"/>
</g>
</g>
</svg>
